<?xml version="1.0" encoding="utf-8"?>
<!-- Generator: Adobe Illustrator 15.0.0, SVG Export Plug-In . SVG Version: 6.00 Build 0)  -->
<!DOCTYPE svg PUBLIC "-//W3C//DTD SVG 1.1//EN" "http://www.w3.org/Graphics/SVG/1.1/DTD/svg11.dtd">
<svg version="1.1" id="Layer_1" xmlns="http://www.w3.org/2000/svg" xmlns:xlink="http://www.w3.org/1999/xlink" x="0px" y="0px"
	 width="24.736px" height="24.736px" viewBox="0 0 24.736 24.736" enable-background="new 0 0 24.736 24.736" xml:space="preserve">
<g>
	<polygon fill="#434343" points="23.521,21.031 23.938,20.615 15.354,12.032 12.032,15.354 20.615,23.938 21.03,23.522 
		22.245,24.736 24.735,22.244 	"/>
	<path fill="#434343" d="M12.862,14.523l0.553-0.553l-1.678-1.678c0.195-0.175,0.38-0.36,0.555-0.556l1.678,1.679l0.553-0.553
		l-1.738-1.739c0.821-1.152,1.31-2.557,1.31-4.077c0-3.886-3.161-7.047-7.047-7.047S0,3.162,0,7.048s3.161,7.047,7.047,7.047
		c1.52,0,2.925-0.488,4.077-1.31L12.862,14.523z M1.6,7.048c0-3.003,2.444-5.447,5.447-5.447s5.447,2.444,5.447,5.447
		s-2.444,5.447-5.447,5.447S1.6,10.051,1.6,7.048z"/>
</g>
</svg>
