<?xml version="1.0" encoding="utf-8"?>
<!-- Generator: Adobe Illustrator 15.0.0, SVG Export Plug-In . SVG Version: 6.00 Build 0)  -->
<!DOCTYPE svg PUBLIC "-//W3C//DTD SVG 1.1//EN" "http://www.w3.org/Graphics/SVG/1.1/DTD/svg11.dtd">
<svg version="1.1" id="Layer_1" xmlns="http://www.w3.org/2000/svg" xmlns:xlink="http://www.w3.org/1999/xlink" x="0px" y="0px"
	 width="346.6px" height="63.272px" viewBox="0 0 346.6 63.272" enable-background="new 0 0 346.6 63.272" xml:space="preserve">
<g>
	<path fill="#DAB144" d="M54.473,46.009l-2.243,5.462c-0.527,1.292,0.317,1.16,0.712,1.372v0.791h-3.825v-0.791
		c0.633-0.186,0.791-0.581,1.029-1.135l7.097-16.911h1.847l7.255,16.41c0.29,0.633,0.607,1.477,1.398,1.636v0.791H63.39v-0.791
		c0.765-0.265,1.056-0.265,0.422-1.636l-2.401-5.198H54.473z M57.85,37.91l-2.612,6.305h5.408L57.85,37.91z"/>
	<path fill="#DAB144" d="M72.205,42.5c0.923-1.16,2.929-1.794,4.38-1.794c3.377,0,5.91,2.56,5.91,5.937
		c0,4.907-4.617,7.387-9.155,7.387c-0.37,0-0.765-0.079-1.135-0.105v3.482c0,0.871,0,1.267,1.188,1.319v0.712h-4.591v-0.712
		c1.082-0.053,1.082-0.448,1.082-1.319V43.107c0-0.871,0-1.214-1.161-1.319v-0.712h3.482V42.5z M72.205,52.235h1.161
		c3.983,0,6.807-1.873,6.807-5.408c0-2.374-1.636-4.327-4.089-4.327c-1.557,0-3.166,0.766-3.878,2.164V52.235z"/>
	<path fill="#DAB144" d="M86.455,47.223c0.132,3.008,2.058,5.224,5.171,5.224c1.214,0,2.876-0.501,3.271-1.82h0.66v2.401
		c-1.319,0.606-2.77,1.002-4.248,1.002c-4.037,0-7.176-2.77-7.176-6.938c0-3.456,2.691-6.385,6.2-6.385
		c3.746,0,6.042,2.823,5.91,6.517H86.455z M93.763,45.64c0-1.952-1.372-3.351-3.298-3.351c-1.979,0-3.562,1.372-3.878,3.351H93.763z
		"/>
	<path fill="#DAB144" d="M101.125,42.052c0.844-0.844,1.688-1.346,2.902-1.346c0.633,0,1.292,0.105,1.873,0.37v2.638h-0.712
		c-0.132-0.791-0.923-1.214-1.688-1.214c-0.607,0-1.267,0.344-1.662,0.845c-0.528,0.58-0.554,1.188-0.554,1.952v6.306
		c0,0.87,0,1.267,1.372,1.319v0.712h-4.802v-0.712c1.108-0.053,1.108-0.449,1.108-1.319v-8.495c0-0.871,0-1.214-1.161-1.319v-0.712
		h3.324V42.052z"/>
	<path fill="#DAB144" d="M110.493,41.076v10.526c0,0.87,0,1.267,1.055,1.319v0.712h-4.775v-0.712
		c1.398-0.053,1.398-0.449,1.398-1.319v-8.495c0-0.871,0-1.214-1.002-1.319v-0.712H110.493z M107.722,37.039
		c0-0.87,0.712-1.504,1.53-1.504c0.897,0,1.583,0.687,1.583,1.557c0,0.897-0.765,1.557-1.636,1.557S107.722,37.91,107.722,37.039z"
		/>
	<path fill="#DAB144" d="M113.052,47.275c0-3.904,2.981-6.569,6.78-6.569c3.852,0,6.596,2.876,6.596,6.728
		c0,3.879-2.902,6.596-6.701,6.596C115.875,54.029,113.052,51.154,113.052,47.275z M124.106,47.539c0-2.743-1.478-5.25-4.406-5.25
		c-2.849,0-4.3,2.428-4.3,5.092c0,2.691,1.557,5.065,4.432,5.065C122.655,52.446,124.106,50.151,124.106,47.539z M119.648,35.932
		c0.343-0.423,0.897-1.135,1.53-1.135c0.475,0,0.897,0.58,0.897,1.028c0,0.634-0.923,1.161-1.398,1.451l-2.902,1.847l-0.37-0.396
		L119.648,35.932z"/>
	<path fill="#DAB144" d="M137.986,52.104c-1.108,1.188-2.796,1.926-4.406,1.926c-3.166,0-5.593-2.928-5.593-6.015
		c0-2.19,1.451-7.309,8.733-7.309h1.266v-3.878c0-0.87,0-1.214-1.002-1.319v-0.712h3.324v16.542c0,1.134,0,1.478,1.266,1.583v0.712
		h-3.588V52.104z M137.986,42.289h-1.266c-3.43,0-6.411,1.847-6.411,5.541c0,2.321,1.557,4.405,3.984,4.405
		c1.636,0,2.77-1.002,3.693-2.295V42.289z"/>
	<path fill="#DAB144" d="M146.458,41.076v10.526c0,0.87,0,1.267,1.055,1.319v0.712h-4.775v-0.712
		c1.398-0.053,1.398-0.449,1.398-1.319v-8.495c0-0.871,0-1.214-1.002-1.319v-0.712H146.458z M143.687,37.039
		c0-0.87,0.712-1.504,1.53-1.504c0.897,0,1.583,0.687,1.583,1.557c0,0.897-0.765,1.557-1.636,1.557S143.687,37.91,143.687,37.039z"
		/>
	<path fill="#DAB144" d="M160.389,53.739c-0.739,0.211-1.557,0.29-2.348,0.29c-4.195,0-8.891-2.479-8.891-7.202
		c0-3.852,3.298-6.121,6.886-6.121c2.058,0,3.958,0.766,5.435,2.164l-2.058,2.242l-0.686-0.527c0.185-0.185,0.343-0.476,0.343-0.739
		c0-1.16-2.084-1.557-2.928-1.557c-2.639,0-4.512,1.794-4.512,4.459c0,3.298,2.771,5.698,5.989,5.698
		c0.818,0,1.953-0.29,2.058-1.239h0.712V53.739z"/>
	<path fill="#DAB144" d="M162.739,47.275c0-3.904,2.981-6.569,6.78-6.569c3.852,0,6.596,2.876,6.596,6.728
		c0,3.879-2.902,6.596-6.701,6.596C165.562,54.029,162.739,51.154,162.739,47.275z M173.793,47.539c0-2.743-1.478-5.25-4.406-5.25
		c-2.849,0-4.3,2.428-4.3,5.092c0,2.691,1.557,5.065,4.432,5.065C172.342,52.446,173.793,50.151,173.793,47.539z"/>
	<path fill="#DAB144" d="M188.703,51.207c0,1.16-0.053,1.292,1.082,1.636v0.791h-4.644v-0.791c1.135-0.238,1.082-0.423,1.082-1.636
		V37.224c0-1.213,0.053-1.398-1.082-1.636v-0.791h6.886c3.219,0,7.15,0.923,7.15,4.907c0,4.907-6.912,6.912-10.474,8.205V51.207z
		 M188.703,36.512v9.523c2.638-0.976,7.994-2.743,7.994-6.305c0-2.876-2.849-3.219-5.092-3.219H188.703z"/>
	<path fill="#DAB144" d="M201.659,49.703l0.607,0.527c-0.185,0.237-0.264,0.448-0.264,0.738c0,1.135,1.741,1.478,3.007,1.478
		c1.188,0,3.087-0.554,3.087-2.084c0-1.372-1.451-1.768-2.533-2.058l-1.108-0.264c-1.9-0.476-4.089-1.24-4.089-3.614
		c0-2.639,2.691-3.721,4.934-3.721c1.636,0,3.403,0.634,4.59,1.741l-1.715,2.296l-0.66-0.476c0.158-0.185,0.291-0.448,0.291-0.686
		c0-1.056-1.847-1.293-2.612-1.293c-1.372,0-2.718,0.423-2.718,1.583c0,1.372,2.084,1.741,3.113,2.005
		c2.137,0.502,4.828,1.188,4.828,3.958c0,3.008-3.034,4.194-5.593,4.194c-1.873,0-3.878-0.686-5.171-2.163L201.659,49.703z"/>
	<path fill="#DAB144" d="M215.723,41.076v10.526c0,0.87,0,1.267,1.055,1.319v0.712h-4.775v-0.712
		c1.398-0.053,1.398-0.449,1.398-1.319v-8.495c0-0.871,0-1.214-1.002-1.319v-0.712H215.723z M212.952,37.039
		c0-0.87,0.712-1.504,1.53-1.504c0.897,0,1.583,0.687,1.583,1.557c0,0.897-0.765,1.557-1.636,1.557S212.952,37.91,212.952,37.039z"
		/>
	<path fill="#DAB144" d="M229.654,53.739c-0.739,0.211-1.557,0.29-2.349,0.29c-4.194,0-8.892-2.479-8.892-7.202
		c0-3.852,3.299-6.121,6.887-6.121c2.058,0,3.957,0.766,5.435,2.164l-2.058,2.242l-0.686-0.527c0.184-0.185,0.342-0.476,0.342-0.739
		c0-1.16-2.084-1.557-2.928-1.557c-2.639,0-4.512,1.794-4.512,4.459c0,3.298,2.771,5.698,5.988,5.698
		c0.818,0,1.953-0.29,2.059-1.239h0.713V53.739z"/>
	<path fill="#DAB144" d="M232.004,47.275c0-3.904,2.981-6.569,6.78-6.569c3.853,0,6.596,2.876,6.596,6.728
		c0,3.879-2.901,6.596-6.701,6.596C234.826,54.029,232.004,51.154,232.004,47.275z M243.059,47.539c0-2.743-1.479-5.25-4.406-5.25
		c-2.85,0-4.301,2.428-4.301,5.092c0,2.691,1.557,5.065,4.433,5.065C241.607,52.446,243.059,50.151,243.059,47.539z"/>
	<path fill="#DAB144" d="M256.066,53.634v-1.557c-1.292,1.214-2.506,1.952-4.194,1.952c-2.374,0-4.722-1.557-4.722-4.142
		c0-4.222,5.539-4.907,8.916-5.303c0.027-1.768-1.688-2.296-3.139-2.296c-1.398,0-3.192,0.423-3.773,1.82h-0.791v-2.137
		c1.372-0.87,3.192-1.267,4.828-1.267c1.188,0,2.691,0.211,3.72,0.871c1.372,0.844,1.478,2.058,1.478,3.535v6.49
		c0,0.844,0,1.16,0.924,1.319v0.712H256.066z M256.066,46.142c-2.137,0.185-6.596,0.896-6.596,3.72c0,1.478,1.451,2.374,2.771,2.374
		c1.503,0,2.928-1.002,3.824-2.163V46.142z"/>
	<path fill="#DAB144" d="M264.406,42.368c1.107-1.16,2.77-1.662,4.301-1.662c2.85,0,4.643,1.583,4.643,4.485v6.411
		c0,0.87,0,1.267,1.188,1.319v0.712h-4.617v-0.712c1.108-0.053,1.108-0.449,1.108-1.319v-5.487c0-2.006-0.501-3.615-2.902-3.615
		c-1.53,0-2.929,0.792-3.72,2.111v6.991c0,0.87,0,1.267,1.188,1.319v0.712h-4.617v-0.712c1.107-0.053,1.107-0.449,1.107-1.319
		v-8.495c0-0.871,0-1.214-1.107-1.319v-0.712h3.43V42.368z"/>
	<path fill="#DAB144" d="M285.119,53.634v-1.557c-1.293,1.214-2.506,1.952-4.195,1.952c-2.374,0-4.722-1.557-4.722-4.142
		c0-4.222,5.54-4.907,8.917-5.303c0.026-1.768-1.688-2.296-3.14-2.296c-1.397,0-3.192,0.423-3.772,1.82h-0.791v-2.137
		c1.371-0.87,3.191-1.267,4.828-1.267c1.187,0,2.69,0.211,3.719,0.871c1.373,0.844,1.479,2.058,1.479,3.535v6.49
		c0,0.844,0,1.16,0.923,1.319v0.712H285.119z M285.119,46.142c-2.137,0.185-6.596,0.896-6.596,3.72c0,1.478,1.451,2.374,2.771,2.374
		c1.503,0,2.929-1.002,3.825-2.163V46.142z"/>
	<path fill="#DAB144" d="M293.802,51.603c0,0.87,0,1.267,1.107,1.319v0.712h-4.563v-0.712c1.135-0.053,1.135-0.449,1.135-1.319
		V36.828c0-0.87,0-1.214-1.162-1.319v-0.712h3.483V51.603z"/>
	<path fill="#DAB144" d="M300.267,51.603c0,0.87,0,1.267,1.055,1.319v0.712h-4.774v-0.712c1.397-0.053,1.397-0.449,1.397-1.319
		v-8.495c0-0.871,0-1.214-1.002-1.319v-0.712h3.324V51.603z M298.842,35.932c0.343-0.423,0.896-1.135,1.53-1.135
		c0.475,0,0.896,0.58,0.896,1.028c0,0.634-0.923,1.161-1.397,1.451l-2.902,1.847l-0.369-0.396L298.842,35.932z"/>
	<path fill="#DAB144" d="M306.31,49.756c0,1.002-0.053,2.69,1.424,2.69c0.713,0,1.346-0.422,1.372-1.16h0.713v2.348
		c-0.634,0.237-1.425,0.396-2.111,0.396c-2.611,0-3.72-1.081-3.72-3.72v-7.624h-1.662v-1.583h1.662v-3.536l2.322-0.527v4.063h3.033
		v1.583h-3.033V49.756z"/>
	<path fill="#DAB144" d="M314.568,41.076v10.526c0,0.87,0,1.267,1.055,1.319v0.712h-4.774v-0.712
		c1.397-0.053,1.397-0.449,1.397-1.319v-8.495c0-0.871,0-1.214-1.002-1.319v-0.712H314.568z M311.798,37.039
		c0-0.87,0.713-1.504,1.53-1.504c0.897,0,1.583,0.687,1.583,1.557c0,0.897-0.765,1.557-1.636,1.557
		C312.405,38.648,311.798,37.91,311.798,37.039z"/>
	<path fill="#DAB144" d="M328.498,53.739c-0.738,0.211-1.557,0.29-2.348,0.29c-4.195,0-8.891-2.479-8.891-7.202
		c0-3.852,3.298-6.121,6.886-6.121c2.058,0,3.957,0.766,5.435,2.164l-2.058,2.242l-0.687-0.527c0.185-0.185,0.344-0.476,0.344-0.739
		c0-1.16-2.085-1.557-2.929-1.557c-2.639,0-4.512,1.794-4.512,4.459c0,3.298,2.771,5.698,5.989,5.698
		c0.817,0,1.952-0.29,2.058-1.239h0.712V53.739z"/>
	<path fill="#DAB144" d="M330.85,47.275c0-3.904,2.98-6.569,6.78-6.569c3.852,0,6.595,2.876,6.595,6.728
		c0,3.879-2.901,6.596-6.7,6.596C333.672,54.029,330.85,51.154,330.85,47.275z M341.903,47.539c0-2.743-1.478-5.25-4.405-5.25
		c-2.85,0-4.301,2.428-4.301,5.092c0,2.691,1.557,5.065,4.433,5.065C340.452,52.446,341.903,50.151,341.903,47.539z"/>
</g>
<g>
	<defs>
		<path id="SVGID_1_" d="M6.527,52.771c0,5.8,4.702,10.502,10.502,10.502c5.8,0,10.503-4.702,10.503-10.502
			c0-5.802-4.703-10.502-10.503-10.502C11.229,42.269,6.527,46.969,6.527,52.771"/>
	</defs>
	<clipPath id="SVGID_2_">
		<use xlink:href="#SVGID_1_"  overflow="visible"/>
	</clipPath>
</g>
<g>
	<path fill="#DAB144" d="M4.885,47.875H3.897V0H2.166v49.607h2.164c0.212-0.85,0.51-1.664,0.877-2.438
		C5.094,47.401,4.982,47.634,4.885,47.875z"/>
	<path fill="#DAB144" d="M28.777,47.008h0.038V0H4.766v47.008H5.28c-0.007,0.015-0.014,0.03-0.021,0.046
		c0.383-0.787,0.842-1.531,1.37-2.221c0.02-0.027,0.04-0.055,0.06-0.081c0.188-0.241,0.384-0.474,0.587-0.7
		c0.054-0.062,0.109-0.121,0.165-0.182c0.191-0.206,0.388-0.407,0.592-0.601c0.076-0.072,0.154-0.141,0.232-0.211
		c0.199-0.18,0.4-0.358,0.61-0.526c0.088-0.07,0.181-0.135,0.271-0.203c0.368-0.278,0.75-0.536,1.146-0.775
		c0.138-0.083,0.271-0.173,0.412-0.251c0.16-0.089,0.327-0.165,0.491-0.247c0.192-0.097,0.384-0.193,0.582-0.28
		c0.161-0.071,0.326-0.134,0.491-0.198c0.211-0.083,0.423-0.163,0.64-0.235c0.161-0.053,0.324-0.103,0.488-0.15
		c0.232-0.067,0.467-0.127,0.704-0.182c0.156-0.035,0.312-0.072,0.47-0.103c0.267-0.051,0.537-0.089,0.808-0.123
		c0.136-0.018,0.269-0.04,0.406-0.053c0.411-0.039,0.825-0.063,1.246-0.063c0.42,0,0.835,0.024,1.246,0.063
		c0.137,0.013,0.27,0.035,0.406,0.053c0.271,0.034,0.542,0.072,0.808,0.123c0.159,0.03,0.314,0.067,0.471,0.103
		c0.237,0.055,0.471,0.114,0.703,0.182c0.164,0.048,0.327,0.098,0.488,0.15c0.216,0.072,0.429,0.152,0.64,0.235
		c0.165,0.064,0.329,0.127,0.49,0.198c0.197,0.087,0.389,0.184,0.581,0.279c0.164,0.083,0.331,0.159,0.492,0.248
		c0.139,0.077,0.271,0.165,0.406,0.247c0.399,0.24,0.784,0.501,1.154,0.781c0.089,0.067,0.181,0.131,0.269,0.201
		c0.211,0.168,0.411,0.347,0.611,0.527c0.077,0.069,0.155,0.138,0.231,0.21c0.205,0.193,0.4,0.395,0.592,0.601
		c0.056,0.061,0.11,0.12,0.165,0.182c0.203,0.228,0.399,0.459,0.586,0.7c0.021,0.026,0.04,0.054,0.06,0.08
		c0.528,0.69,0.988,1.436,1.371,2.224C28.792,47.04,28.785,47.023,28.777,47.008z"/>
	<path fill="#DAB144" d="M29.684,0v47.875h-0.511c-0.098-0.243-0.211-0.478-0.324-0.712c0.369,0.776,0.667,1.593,0.88,2.444h1.688V0
		H29.684z"/>
</g>
<g>
	<path fill="#434343" d="M18.736,52.65v7.832c3.539-0.783,6.196-3.942,6.196-7.713c0-4.357-3.545-7.902-7.903-7.902
		s-7.903,3.545-7.903,7.902c0,3.925,2.879,7.182,6.635,7.792v-5.308c0-1.116,0-1.556-1.284-1.69V52.65H18.736z M17.146,47.855
		c1.149,0,2.028,0.879,2.028,1.994c0,1.15-0.98,1.995-2.095,1.995c-1.116,0-1.893-0.947-1.893-2.062S16.099,47.855,17.146,47.855z"
		/>
	<path fill="#434343" d="M17.029,42.268c-5.8,0-10.502,4.702-10.502,10.503c0,5.37,4.033,9.791,9.234,10.418v-1.751
		c-4.236-0.617-7.503-4.264-7.503-8.668c0-4.836,3.935-8.77,8.771-8.77s8.771,3.934,8.771,8.77c0,4.252-3.042,7.804-7.064,8.601
		v1.751c4.986-0.816,8.795-5.134,8.795-10.351C27.531,46.97,22.829,42.268,17.029,42.268z"/>
</g>
</svg>
